<?xml version="1.0" encoding="utf-8"?>
<svg viewBox="0 0 1080 1080" xmlns="http://www.w3.org/2000/svg">
  <g transform="matrix(0.1, 0, 0, -0.1, 0, 1080)" fill="#FFFFFF" stroke="none">
    <path d="M 5195 8510 C 5058 8499 4910 8479 4740 8440 C 4180 8312 3687 8042 3285 7645 C 2968 7332 2734 6975 2573 6561 C 2494 6356 2425 6100 2388 5875 C 2371 5767 2371 5375 2388 5295 C 2436 5076 2517 4914 2658 4757 C 2938 4444 3400 4199 3903 4096 C 3969 4082 4024 4069 4028 4066 C 4032 4061 4009 3792 3954 3225 C 3935 3031 3942 2924 3986 2746 C 4034 2556 4073 2478 4163 2394 C 4298 2269 4499 2202 4881 2153 C 5079 2128 5716 2128 5920 2153 C 6291 2199 6500 2269 6632 2390 C 6733 2482 6767 2554 6827 2795 C 6862 2941 6862 3088 6827 3440 C 6802 3688 6769 4059 6752 4281 L 6745 4377 L 6855 4389 C 7179 4424 7481 4521 7838 4706 C 8056 4818 8113.843 4889.58 8180.247 4955.173 C 8453.101 5224.694 8432 5795 8401 5955 C 8339 6286 8252 6546 8102 6844 C 7645 7751 6764 8370 5755 8494 C 5599 8513 5334 8521 5195 8510 Z M 5630 8209 C 6280 8148 6877 7867 7335 7405 C 7729 7008 7988 6514 8101 5947 C 8128 5809 8147 5568 8132 5538 C 8122 5516 8121 5516 8121 5545 C 8120 5562 8111 5608 8100 5649 C 8044 5864 7910 6006 7751 6017 C 7676 6023 7597 5998 7480 5933 C 7444 5913 7400 5888 7382 5878 C 7276 5819 7159 5806 7063 5842 C 6983 5871 6879 5978 6765 6148 C 6583 6418 6495 6529 6356 6660 C 6176 6831 5948 6960 5720 7021 C 5653 7039 5607 7044 5500 7044 C 5339 7045 5281 7032 5135 6960 C 4991 6890 4848 6779 4501 6471 C 4241 6241 4091.907 6191.406 3934 6160 C 3658.333 6105.173 3463.833 6158.829 3360 6402 C 3136.342 6925.792 3505.003 7417.058 3817 7707 C 4090.266 7960.95 4505 8091 4900 8170 C 4958 8182 5121 8203 5165 8208 C 5272 8219 5513 8220 5630 8209 Z M 3275 7190 C 3277 7190 2853.963 6681.584 3236 6020 C 3393.452 5747.336 3557 5569 3601 5401 C 3669 5141 3608 4688 3490 4575 L 3460 4546 L 3402 4574 C 3303 4622 3128 4731 3056 4789 C 2845 4959 2748 5095 2694 5297 C 2671 5382 2667 5415 2667 5555 C 2666 5729 2677 5826 2721 6025 C 2800 6388 2957 6751 3158 7040 C 3208 7112 3269 7190 3275 7190 Z M 5660 6790 C 5969 6741 6246 6518 6400 6195 C 6426 6140 6482 5985 6525 5851 C 6629 5518 6673 5432 6783 5346 C 6871 5276 6989 5240 7127 5240 C 7232 5240 7276 5253 7440 5333 C 7558 5390 7596 5404 7645 5408 C 7695 5411 7709 5408 7732 5391 C 7747 5379 7764 5353 7769 5332 C 7792 5252 7515.61 4910.318 6906.325 4749.111 C 6251.816 4575.938 5777 4826 5536 4924 C 5246 5042 5113 5111 4976 5215 C 4853 5307 4733 5446 4671 5567 C 4608 5692 4603 5910 4660 6082 C 4747 6344 5002 6623 5255 6733 C 5396 6794 5520 6812 5660 6790 Z M 4408 5214 C 4504 5187 4618 5125 4880 4959 C 4932 4926 5078 4847 5204 4784 C 5438 4667 5543 4604 5594 4552 L 5622 4521 L 5584 4511 C 4888 4329 4370 4294 3905 4400 C 3856 4411 3809 4424 3802 4428 C 3789 4437 3803 4487 3897 4780 C 3974 5021 4083 5179 4195 5213 C 4261 5234 4339 5234 4408 5214 Z M 5995 4320 C 6225 4387 6469 4112 6480 3985 C 6491 3859 6502 3724 6505 3685 C 6509 3647 6522 3507 6536 3375 C 6568 3053 6568 2973 6531 2826 C 6494 2680 6467 2626 6414 2589 C 6353 2547 6225 2501 6120 2484 C 6106 2481 6073 2475 6045 2470 C 5848 2432 5361 2412 5100 2431 C 4751 2456 4495 2513 4389 2588 C 4335 2626 4305 2688 4270 2831 C 4237 2967 4233 3053 4250 3220 C 4256 3272 4274 3457 4290 3630 C 4306 3803 4322 3968 4326 3995 L 4332 4045 L 4498 4047 C 4660 4049 4828 4062 4940 4080 C 4970 4085 5017 4092 5045 4095 C 5214 4116 5648 4219 5995 4320 Z"/>
  </g>
</svg>